<svg id="Group_35" data-name="Group 35" xmlns="http://www.w3.org/2000/svg" xmlns:xlink="http://www.w3.org/1999/xlink" width="87.15" height="34.7" viewBox="0 0 87.15 34.7">
  <defs>
    <linearGradient id="linear-gradient" x1="0.5" x2="0.584" y2="1" gradientUnits="objectBoundingBox">
      <stop offset="0" stop-color="#d11388"/>
      <stop offset="1" stop-color="#8b298a"/>
    </linearGradient>
    <clipPath id="clip-path">
      <path id="Path_20" data-name="Path 20" d="M230.132,390.432c-7.013,0-13.415,5.118-14.458,12.049-.539,3.581-.254,7.286-.337,10.936,0,.04.048.082.083.136h7.391v-.862c0-2.363-.011-4.726,0-7.089a7.476,7.476,0,0,1,7.693-7.676q3.507,0,7.015,0h.825a3.245,3.245,0,0,0,.067-.431c0-2.311,0-4.621,0-7.064h-8.283" transform="translate(-215.333 -390.431)" fill="url(#linear-gradient)"/>
    </clipPath>
    <clipPath id="clip-path-2">
      <path id="Path_22" data-name="Path 22" d="M390.565,552.342c0,.369,0,.64,0,.911,0,2.437.043,4.875-.02,7.31a7.419,7.419,0,0,1-7.518,7.3q-2.2.008-4.4,0h-2.907c-.264,0-.527.023-.8.036v7.457c2.915,0,5.772.043,8.627-.009a14.871,14.871,0,0,0,14.472-14.018c.129-2.855.045-5.718.052-8.577a2.05,2.05,0,0,0-.086-.415Z" transform="translate(-374.917 -552.342)" fill="url(#linear-gradient)"/>
    </clipPath>
    <clipPath id="clip-path-3">
      <rect id="Rectangle_5" data-name="Rectangle 5" width="7.444" height="7.42" fill="url(#linear-gradient)"/>
    </clipPath>
  </defs>
  <g id="Group_9" data-name="Group 9" transform="translate(43.987 11.787)">
    <path id="Path_1" data-name="Path 1" d="M830.583,700.744a2.323,2.323,0,0,1-.2-.42l-.361-.987a2.028,2.028,0,0,0-.3-.557.916.916,0,0,0-.425-.3,1.6,1.6,0,0,0,.483-.259,1.964,1.964,0,0,0,.386-.4,1.84,1.84,0,0,0,.259-.518,1.98,1.98,0,0,0,.093-.611,1.9,1.9,0,0,0-.62-1.533,2.5,2.5,0,0,0-1.676-.528q-.332,0-.884.01t-1.343.029l-.068.059v6.624a3.653,3.653,0,0,0,.635.049q.2,0,.361-.015c.111-.01.212-.021.3-.034v-2.56h.6a.842.842,0,0,1,.589.181,1.332,1.332,0,0,1,.324.522l.412,1.163a1.609,1.609,0,0,0,.32.6.625.625,0,0,0,.466.176,1.3,1.3,0,0,0,.539-.107.888.888,0,0,0,.366-.283,1.042,1.042,0,0,1-.264-.293m-2.452-3q-.391,0-.9.029v-2.149q.156.01.376.01h.523a1.055,1.055,0,0,1,0,2.11" transform="translate(-825.932 -684.501)"/>
    <path id="Path_2" data-name="Path 2" d="M905.064,720.7a1.561,1.561,0,0,0-.469-1.241,1.758,1.758,0,0,0-1.2-.41,5.423,5.423,0,0,0-2.139.44,1.548,1.548,0,0,0,.332.909,5.144,5.144,0,0,1,1.485-.342.647.647,0,0,1,.723.742v.264q-.293-.029-.821-.029a2.544,2.544,0,0,0-.757.108,1.837,1.837,0,0,0-.606.313,1.38,1.38,0,0,0-.4.513,1.7,1.7,0,0,0-.142.718,1.631,1.631,0,0,0,.093.547,1.324,1.324,0,0,0,.283.469,1.377,1.377,0,0,0,.478.328,1.708,1.708,0,0,0,.67.122,1.96,1.96,0,0,0,1.387-.615,1.19,1.19,0,0,0,.928.557,1.176,1.176,0,0,0,.254-.293,1.359,1.359,0,0,0,.176-.371.849.849,0,0,1-.274-.723Zm-1.27,2.052a1.288,1.288,0,0,1-.918.43.512.512,0,0,1-.4-.162.65.65,0,0,1-.147-.454.61.61,0,0,1,.225-.533,1.118,1.118,0,0,1,.655-.161c.091,0,.185,0,.283.01l.3.02Z" transform="translate(-895.655 -707.158)"/>
    <path id="Path_3" data-name="Path 3" d="M971.258,720.843l-.6-.215q-.489-.176-.489-.479a.4.4,0,0,1,.147-.318.608.608,0,0,1,.4-.122,3.4,3.4,0,0,1,1.339.342.85.85,0,0,0,.263-.391,1.458,1.458,0,0,0,.1-.508,2.628,2.628,0,0,0-.371-.147q-.215-.068-.449-.122c-.156-.036-.311-.064-.464-.083a3.272,3.272,0,0,0-.415-.029,2.4,2.4,0,0,0-.742.107,1.686,1.686,0,0,0-.571.308,1.394,1.394,0,0,0-.371.478,1.456,1.456,0,0,0-.132.63q0,.987,1.231,1.436l.547.205q.528.205.528.547a.389.389,0,0,1-.2.342.965.965,0,0,1-.523.127,2.926,2.926,0,0,1-1.358-.42,1.3,1.3,0,0,0-.259.405,1.357,1.357,0,0,0-.122.474,3.5,3.5,0,0,0,1.778.479,2.325,2.325,0,0,0,1.485-.415,1.35,1.35,0,0,0,.517-1.109,1.413,1.413,0,0,0-.312-.909,2.057,2.057,0,0,0-.957-.615" transform="translate(-958.459 -706.906)"/>
    <path id="Path_4" data-name="Path 4" d="M1033.892,694.011a2.505,2.505,0,0,0,.611-.1q.093-.049.122-.547a2.33,2.33,0,0,0-.02-.3.3.3,0,0,0-.088-.2.617.617,0,0,0-.22-.093,1.636,1.636,0,0,0-.4-.039,1.329,1.329,0,0,0-.645.127,1.262,1.262,0,0,0-.1.508.913.913,0,0,0,.093.5c.062.085.275.133.64.146" transform="translate(-1018.231 -682.741)"/>
    <path id="Path_5" data-name="Path 5" d="M1029.52,720.128h-.166q-.137,0-.327.014l-.416.034a1.864,1.864,0,0,0-.058.45,1.714,1.714,0,0,0,.058.449h.127q.44,0,.44.537v3.4a2.533,2.533,0,0,0,.317.039c.108.007.217.01.327.01s.22,0,.328-.01a2.259,2.259,0,0,0,.308-.039v-3.859a1.075,1.075,0,0,0-.249-.752.885.885,0,0,0-.689-.274" transform="translate(-1013.957 -708.164)"/>
    <path id="Path_6" data-name="Path 6" d="M1073.393,693.914v-5a.933.933,0,0,0-.156-.615.692.692,0,0,0-.538-.176h-.488l-.068.068v2.443a2.236,2.236,0,0,0-1-.264,1.626,1.626,0,0,0-.748.176,1.815,1.815,0,0,0-.606.5,2.525,2.525,0,0,0-.411.8,3.472,3.472,0,0,0-.151,1.065,4.727,4.727,0,0,0,.108,1.055,2.409,2.409,0,0,0,.323.8,1.544,1.544,0,0,0,.532.508,1.462,1.462,0,0,0,.738.181,1.817,1.817,0,0,0,1.4-.635,1.093,1.093,0,0,0,.919.576,1.008,1.008,0,0,0,.259-.293,1.215,1.215,0,0,0,.161-.371.985.985,0,0,1-.274-.811m-1.251,0a1.084,1.084,0,0,1-.88.489.6.6,0,0,1-.527-.357,2.327,2.327,0,0,1-.205-1.119,2.421,2.421,0,0,1,.229-1.182.687.687,0,0,1,.61-.4,1.046,1.046,0,0,1,.361.073,2.22,2.22,0,0,1,.411.21Z" transform="translate(-1051.704 -678.462)"/>
    <path id="Path_7" data-name="Path 7" d="M1170.065,694.68v4.326a2.038,2.038,0,0,1-.2,1.042.76.76,0,0,1-.7.328,1.887,1.887,0,0,1-1-.323,2.01,2.01,0,0,0-.467.977,2.906,2.906,0,0,0,1.553.42,2.637,2.637,0,0,0,1.055-.181,1.542,1.542,0,0,0,.654-.527,2.115,2.115,0,0,0,.337-.826,5.646,5.646,0,0,0,.093-1.065V694.68a4.487,4.487,0,0,0-1.319,0" transform="translate(-1143.071 -684.504)"/>
    <path id="Path_8" data-name="Path 8" d="M1234.345,720.7a1.561,1.561,0,0,0-.469-1.241,1.758,1.758,0,0,0-1.2-.41,5.423,5.423,0,0,0-2.139.44,1.548,1.548,0,0,0,.332.909,5.144,5.144,0,0,1,1.485-.342.648.648,0,0,1,.723.742v.264q-.293-.029-.821-.029a2.547,2.547,0,0,0-.757.108,1.838,1.838,0,0,0-.606.313,1.381,1.381,0,0,0-.4.513,1.7,1.7,0,0,0-.141.718,1.631,1.631,0,0,0,.093.547,1.324,1.324,0,0,0,.284.469,1.372,1.372,0,0,0,.478.328,1.708,1.708,0,0,0,.669.122,1.961,1.961,0,0,0,1.387-.615,1.189,1.189,0,0,0,.928.557,1.172,1.172,0,0,0,.254-.293,1.358,1.358,0,0,0,.176-.371.849.849,0,0,1-.274-.723Zm-1.27,2.052a1.288,1.288,0,0,1-.918.43.512.512,0,0,1-.4-.162.649.649,0,0,1-.147-.454.611.611,0,0,1,.224-.533,1.12,1.12,0,0,1,.655-.161c.091,0,.185,0,.283.01l.3.02Z" transform="translate(-1201.215 -707.158)"/>
    <path id="Path_9" data-name="Path 9" d="M1300.119,719.73a.562.562,0,0,1,.568.3,2.188,2.188,0,0,1,.141.889,2.311,2.311,0,0,0,.508.049.633.633,0,0,0,.484-.171.68.68,0,0,0,.161-.484,1.4,1.4,0,0,0-.132-.6,1.482,1.482,0,0,0-.371-.493,1.778,1.778,0,0,0-.586-.333,2.34,2.34,0,0,0-.777-.122,2.029,2.029,0,0,0-.786.156,1.925,1.925,0,0,0-.669.469,2.264,2.264,0,0,0-.464.782,3.192,3.192,0,0,0-.171,1.094,3.12,3.12,0,0,0,.527,1.92,1.826,1.826,0,0,0,1.553.7,2.623,2.623,0,0,0,1.011-.2,2.47,2.47,0,0,0,.816-.532,1.146,1.146,0,0,0-.19-.415,1.1,1.1,0,0,0-.306-.318,2.383,2.383,0,0,1-.6.342,1.579,1.579,0,0,1-.545.108.783.783,0,0,1-.72-.362,2.29,2.29,0,0,1-.224-1.162q0-1.622.776-1.622" transform="translate(-1264.015 -706.907)"/>
    <path id="Path_10" data-name="Path 10" d="M1370.266,694.188l-.283-.761a1.347,1.347,0,0,0-.85-.859,1.292,1.292,0,0,0,.41-.479l.908-1.565-.058-.078q-.469-.019-.7-.02a.829.829,0,0,0-.762.489l-.674,1.162a.278.278,0,0,1-.254.157l-.244.01v-3.332a.957.957,0,0,0-.151-.611.665.665,0,0,0-.533-.181h-.5l-.059.068v7.123a3.946,3.946,0,0,0,1.241,0v-1.993q.235-.019.44-.019a.569.569,0,0,1,.356.117,1.031,1.031,0,0,1,.279.447l.332.894a1.31,1.31,0,0,0,.274.481.611.611,0,0,0,.44.141,1.1,1.1,0,0,0,.86-.39,1.684,1.684,0,0,1-.469-.8" transform="translate(-1327.571 -678.462)"/>
    <path id="Path_11" data-name="Path 11" d="M865.205,564.218h-1.514a.607.607,0,0,1-.4-.351.953.953,0,0,1-.109-.381v-.1a1.072,1.072,0,0,1,.03-.262.325.325,0,0,1,.317-.232.547.547,0,0,1,.321.084.733.733,0,0,1,.208.4l.955-.118a1.252,1.252,0,0,0-.465-.777,1.588,1.588,0,0,0-1.019-.322,1.182,1.182,0,0,0-1.247.772,1.2,1.2,0,0,0-.084.445,1.307,1.307,0,0,0,.01.153,1.616,1.616,0,0,0,.228.688h-.549v.722h3.314Z" transform="translate(-859.301 -561.576)"/>
    <path id="Path_12" data-name="Path 12" d="M834.8,557.732a1.538,1.538,0,0,1-.336,1.089,1.1,1.1,0,0,1-.831.3h-2.745a1.1,1.1,0,0,1-.831-.3,1.538,1.538,0,0,1-.336-1.089,2.005,2.005,0,0,1,.03-.361,4.162,4.162,0,0,1,.238-.658l-1.346-.381a4.032,4.032,0,0,0-.282.826,3.322,3.322,0,0,0-.049.574,2.72,2.72,0,0,0,.682,1.939,2.676,2.676,0,0,0,2.043.8h2.6a2.675,2.675,0,0,0,2.043-.8,2.718,2.718,0,0,0,.683-1.939v-3.675H834.8Z" transform="translate(-828.14 -554.056)"/>
    <path id="Path_13" data-name="Path 13" d="M964.894,558.844a7.637,7.637,0,0,0-.574-2.493,2.449,2.449,0,0,0-2.365-1.306,3.222,3.222,0,0,0-1.088.178,2.421,2.421,0,0,0-.89.549,2.1,2.1,0,0,0-.331.405,5.474,5.474,0,0,0-.381.851l1.529.317a3.067,3.067,0,0,1,.218-.51.8.8,0,0,1,.138-.173.92.92,0,0,1,.322-.2,1.466,1.466,0,0,1,.484-.074,1.049,1.049,0,0,1,1.02.717,7.539,7.539,0,0,1,.366,1.87l.02.148-4.225,0h-2a.383.383,0,0,1-.272-.129.561.561,0,0,1-.168-.42v-4.517H955.14v4.517a1.769,1.769,0,0,0,.549,1.3,1.961,1.961,0,0,0,1.449.594H964.2c.039,0,.079,0,.118-.005a.787.787,0,0,0,.49-.212.592.592,0,0,0,.208-.455.5.5,0,0,0-.01-.109q-.044-.247-.109-.841" transform="translate(-945.832 -554.055)"/>
    <path id="Path_14" data-name="Path 14" d="M1042.525,650.319a.662.662,0,0,0-.218-.146.654.654,0,0,0-.257-.052.638.638,0,0,0-.255.052.676.676,0,0,0-.215.146.7.7,0,0,0-.148.218.652.652,0,0,0,.148.737.721.721,0,0,0,.215.141.639.639,0,0,0,.255.052.655.655,0,0,0,.257-.052.7.7,0,0,0,.218-.141.626.626,0,0,0,.146-.21.667.667,0,0,0,.052-.264.674.674,0,0,0-.052-.262.681.681,0,0,0-.146-.218" transform="translate(-1025.857 -643.201)"/>
    <path id="Path_15" data-name="Path 15" d="M1195.452,650.524a.674.674,0,0,0-.218-.146.652.652,0,0,0-.257-.052.637.637,0,0,0-.255.052.681.681,0,0,0-.215.146.7.7,0,0,0-.149.218.668.668,0,0,0,0,.527.655.655,0,0,0,.149.21.718.718,0,0,0,.215.141.638.638,0,0,0,.255.052.653.653,0,0,0,.257-.052.709.709,0,0,0,.218-.141.625.625,0,0,0,.146-.21.689.689,0,0,0,0-.527.671.671,0,0,0-.146-.218" transform="translate(-1167.767 -643.391)"/>
    <path id="Path_16" data-name="Path 16" d="M1217.426,650.524a.674.674,0,0,0-.218-.146.651.651,0,0,0-.257-.052.635.635,0,0,0-.255.052.679.679,0,0,0-.215.146.7.7,0,0,0-.148.218.665.665,0,0,0,0,.527.649.649,0,0,0,.148.21.715.715,0,0,0,.215.141.636.636,0,0,0,.255.052.652.652,0,0,0,.257-.052.71.71,0,0,0,.218-.141.625.625,0,0,0,.146-.21.688.688,0,0,0,0-.527.671.671,0,0,0-.146-.218" transform="translate(-1188.158 -643.391)"/>
    <path id="Path_17" data-name="Path 17" d="M1142.071,567.79h-4.188a1.521,1.521,0,0,0-1.563.8l-.272-.767-1.306.786a3.185,3.185,0,0,1,.4,1.7v1.553h-1.2a.6.6,0,0,1-.45-.178.836.836,0,0,1-.2-.549V568.68h-1.563v2.365a.9.9,0,0,1-.208.648.619.619,0,0,1-.465.173h-.772l-.03-.277a7.629,7.629,0,0,0-.574-2.493,2.773,2.773,0,0,0-2.711-1.306v1.345a1.319,1.319,0,0,1,1.365.717,7.5,7.5,0,0,1,.366,1.87l.02.148-1.3,0a.722.722,0,0,1-.287-.049,2.524,2.524,0,0,1-.515-.406l-.574,1.44.386.169a2.486,2.486,0,0,0,.989.193h3.636a1.958,1.958,0,0,0,1.454-.445,1.915,1.915,0,0,0,1.434.445h8.135a2.653,2.653,0,0,0,2.008-.807,2.587,2.587,0,0,0,.708-1.874,2.707,2.707,0,0,0-.683-1.939,2.666,2.666,0,0,0-2.043-.8m.821,3.75a1.081,1.081,0,0,1-.811.326h-5.365v-1.335a1.554,1.554,0,0,1,.336-1.094,1.093,1.093,0,0,1,.831-.3h4.188a1.093,1.093,0,0,1,.831.3,1.555,1.555,0,0,1,.337,1.094,1.388,1.388,0,0,1-.346,1.009" transform="translate(-1104.426 -566.8)"/>
    <path id="Path_18" data-name="Path 18" d="M1384.415,580.148v3.5a2.529,2.529,0,0,1-.282,1.217,2.73,2.73,0,0,1-.307.435,9.922,9.922,0,0,1-.826.821l1.291.777a9.468,9.468,0,0,0,.8-.806,4.11,4.11,0,0,0,.455-.663,3.808,3.808,0,0,0,.425-1.805v-3.473Z" transform="translate(-1342.869 -578.268)"/>
  </g>
  <g id="Group_16" data-name="Group 16" transform="translate(0)">
    <g id="Group_11" data-name="Group 11">
      <path id="Path_19" data-name="Path 19" d="M230.132,390.432c-7.013,0-13.415,5.118-14.458,12.049-.539,3.581-.254,7.286-.337,10.936,0,.04.048.082.083.136h7.391v-.862c0-2.363-.011-4.726,0-7.089a7.476,7.476,0,0,1,7.693-7.676q3.507,0,7.015,0h.825a3.245,3.245,0,0,0,.067-.431c0-2.311,0-4.621,0-7.064h-8.283" transform="translate(-215.333 -390.431)" fill="url(#linear-gradient)"/>
      <g id="Group_10" data-name="Group 10" clip-path="url(#clip-path)">
        <rect id="Rectangle_1" data-name="Rectangle 1" width="32.727" height="32.71" transform="translate(-11.629 9.824) rotate(-40.679)" fill="url(#linear-gradient)"/>
      </g>
    </g>
    <g id="Group_13" data-name="Group 13" transform="translate(11.496 11.664)">
      <path id="Path_21" data-name="Path 21" d="M390.565,552.342c0,.369,0,.64,0,.911,0,2.437.043,4.875-.02,7.31a7.419,7.419,0,0,1-7.518,7.3q-2.2.008-4.4,0h-2.907c-.264,0-.527.023-.8.036v7.457c2.915,0,5.772.043,8.627-.009a14.871,14.871,0,0,0,14.472-14.018c.129-2.855.045-5.718.052-8.577a2.05,2.05,0,0,0-.086-.415Z" transform="translate(-374.917 -552.342)" fill="url(#linear-gradient)"/>
      <g id="Group_12" data-name="Group 12" clip-path="url(#clip-path-2)">
        <rect id="Rectangle_2" data-name="Rectangle 2" width="32.649" height="32.632" transform="translate(-11.401 9.799) rotate(-40.679)" fill="url(#linear-gradient)"/>
      </g>
    </g>
    <g id="Group_15" data-name="Group 15" transform="translate(27.154 0.061)">
      <rect id="Rectangle_3" data-name="Rectangle 3" width="7.444" height="7.42" fill="url(#linear-gradient)"/>
      <g id="Group_14" data-name="Group 14" clip-path="url(#clip-path-3)">
        <rect id="Rectangle_4" data-name="Rectangle 4" width="10.481" height="10.479" transform="translate(-3.668 3.152) rotate(-40.679)" fill="url(#linear-gradient)"/>
      </g>
    </g>
  </g>
</svg>
